<svg width="23" height="16" viewBox="0 0 23 16" fill="none" xmlns="http://www.w3.org/2000/svg">
<path d="M21.1289 9C21.6812 9 22.1289 8.55228 22.1289 8C22.1289 7.44772 21.6812 7 21.1289 7L21.1289 9ZM0.292767 7.29289C-0.0977569 7.68342 -0.097757 8.31658 0.292767 8.7071L6.65673 15.0711C7.04725 15.4616 7.68042 15.4616 8.07094 15.0711C8.46147 14.6805 8.46147 14.0474 8.07094 13.6569L2.41409 8L8.07094 2.34314C8.46147 1.95262 8.46147 1.31946 8.07094 0.928931C7.68042 0.538407 7.04725 0.538407 6.65673 0.928931L0.292767 7.29289ZM21.1289 7L0.999874 7L0.999874 9L21.1289 9L21.1289 7Z" fill="#232536"/>
</svg>
