<svg width="48" height="48" viewBox="0 0 48 48" fill="none" xmlns="http://www.w3.org/2000/svg">
<g clip-path="url(#clip0_1296_238)">
<path d="M17.8505 19.2114L15.8579 19.3654C15.3034 19.4082 14.8096 19.6988 14.503 20.1626L12.2049 23.6383C11.9724 23.99 11.9354 24.4302 12.106 24.8158C12.2766 25.2014 12.6272 25.4702 13.0439 25.5347L14.8683 25.8173C15.2951 23.5523 16.3168 21.293 17.8505 19.2114V19.2114Z" fill="#FFD050"/>
<path d="M22.1836 33.1316L22.4662 34.9561C22.5307 35.3728 22.7995 35.7234 23.185 35.8939C23.3454 35.9649 23.5152 35.9999 23.6842 35.9999C23.9215 35.9999 24.1572 35.9308 24.3626 35.795L27.8384 33.497C28.3022 33.1903 28.5928 32.6964 28.6355 32.142L28.7895 30.1494C26.7079 31.6832 24.4486 32.7049 22.1836 33.1316V33.1316Z" fill="#FFD050"/>
<path d="M21.4966 31.8665C21.5599 31.8665 21.6236 31.8613 21.6872 31.8507C22.6361 31.6921 23.5507 31.4248 24.4232 31.0749L16.9244 23.5762C16.5746 24.4486 16.3073 25.3632 16.1486 26.3122C16.0861 26.6862 16.2116 27.0673 16.4797 27.3355L20.6639 31.5196C20.8865 31.7422 21.187 31.8665 21.4966 31.8665Z" fill="#FFD050"/>
<path d="M33.1661 23.1973C35.0011 19.6497 35.069 15.9007 34.9731 14.1425C34.9403 13.54 34.46 13.0597 33.8575 13.0269C33.5712 13.0113 33.2319 13 32.8495 13C30.8835 13 27.7726 13.2978 24.8027 14.834C22.4424 16.0548 19.3475 18.7429 17.5215 22.2757C17.543 22.2925 17.5641 22.3104 17.584 22.3302L25.6698 30.4161C25.6897 30.436 25.7075 30.457 25.7244 30.4786C29.2571 28.6525 31.9453 25.5576 33.1661 23.1973V23.1973ZM25.3731 17.8623C26.6866 16.5488 28.8241 16.5486 30.1377 17.8623C30.7741 18.4986 31.1245 19.3447 31.1245 20.2446C31.1245 21.1445 30.7741 21.9906 30.1377 22.627C29.481 23.2837 28.618 23.6121 27.7554 23.6122C26.8925 23.6122 26.03 23.2838 25.3731 22.627C24.7367 21.9906 24.3863 21.1445 24.3863 20.2446C24.3863 19.3447 24.7367 18.4986 25.3731 17.8623V17.8623Z" fill="#232536"/>
<path d="M26.3264 21.674C27.1146 22.4622 28.3971 22.4622 29.1853 21.674C29.5671 21.2922 29.7773 20.7846 29.7773 20.2446C29.7773 19.7047 29.5671 19.197 29.1853 18.8152C28.7912 18.4211 28.2735 18.2241 27.7559 18.2241C27.2382 18.2241 26.7205 18.4211 26.3265 18.8152C25.9447 19.197 25.7344 19.7047 25.7344 20.2446C25.7344 20.7846 25.9447 21.2922 26.3264 21.674Z" fill="#232536"/>
<path d="M12.6875 31.9539C12.86 31.9539 13.0324 31.8881 13.164 31.7565L15.3639 29.5565C15.6271 29.2934 15.6271 28.8668 15.3639 28.6036C15.1008 28.3405 14.6741 28.3405 14.411 28.6036L12.211 30.8036C11.9479 31.0667 11.9479 31.4934 12.211 31.7565C12.3426 31.8881 12.5151 31.9539 12.6875 31.9539Z" fill="#FFD050"/>
<path d="M17.3799 30.6202C17.1168 30.3571 16.6901 30.3571 16.427 30.6202L12.1974 34.8498C11.9342 35.113 11.9342 35.5396 12.1974 35.8028C12.3289 35.9343 12.5014 36.0001 12.6739 36.0001C12.8463 36.0001 13.0188 35.9343 13.1503 35.8027L17.3799 31.5731C17.6431 31.31 17.6431 30.8834 17.3799 30.6202V30.6202Z" fill="#FFD050"/>
<path d="M18.4422 32.6358L16.2423 34.8358C15.9791 35.099 15.9791 35.5256 16.2423 35.7887C16.3739 35.9203 16.5463 35.9861 16.7187 35.9861C16.8911 35.9861 17.0636 35.9203 17.1952 35.7887L19.3951 33.5888C19.6583 33.3256 19.6583 32.899 19.3951 32.6358C19.132 32.3727 18.7054 32.3727 18.4422 32.6358Z" fill="#FFD050"/>
</g>
<defs>
<clipPath id="clip0_1296_238">
<rect width="23" height="23" fill="white" transform="translate(12 13)"/>
</clipPath>
</defs>
</svg>
